<svg width="68" height="71" viewBox="0 0 68 71" fill="none" xmlns="http://www.w3.org/2000/svg">
<g clip-path="url(#clip0_2187_141)">
<path fill-rule="evenodd" clip-rule="evenodd" d="M-1580 10C-1580 4.47715 -1575.52 0 -1570 0H330C335.523 0 340 4.47715 340 10V94.99C340 94.9955 339.996 95 339.99 95V95C339.985 95 339.98 94.9957 339.98 94.9903C339.45 81.6513 328.469 71 315 71H56.519C51.4555 71 47.2962 67.1673 45.8122 62.3261C39.5424 41.8723 20.508 27 -2 27H-1029C-1051.51 27 -1070.54 41.8723 -1076.81 62.3261C-1078.3 67.1673 -1082.46 71 -1087.52 71H-1555C-1568.47 71 -1579.45 81.6513 -1579.98 94.9903C-1579.98 94.9957 -1579.98 95 -1579.99 95V95C-1580 95 -1580 94.9955 -1580 94.99V10Z" fill="#7027E2"/>
</g>
<defs>
<clipPath id="clip0_2187_141">
<rect width="68" height="71" fill="white"/>
</clipPath>
</defs>
</svg>
